<svg width="2300" height="3819" viewBox="0 0 2300 3819" fill="none" xmlns="http://www.w3.org/2000/svg">
<path d="M612.5 20H2212.5C2230.47 20 2242.45 20.0242 2251.55 20.9506C2260.33 21.8431 2264.2 23.4044 2266.67 25.0559C2269.94 27.2447 2272.76 30.0572 2274.94 33.3329C2276.6 35.8045 2278.16 39.6743 2279.05 48.4472C2279.98 57.5544 2280 69.528 2280 87.5V3731.5C2280 3749.47 2279.98 3761.45 2279.05 3770.55C2278.16 3779.33 2276.6 3783.2 2274.94 3785.67C2272.76 3788.94 2269.94 3791.76 2266.67 3793.94C2264.2 3795.6 2260.33 3797.16 2251.55 3798.05C2242.45 3798.98 2230.47 3799 2212.5 3799H612.5C489.193 3799 398.219 3798.98 326.986 3791.73C256.087 3784.52 206.967 3770.32 166.662 3743.39C130.629 3719.31 99.6913 3688.37 75.615 3652.34C48.684 3612.03 34.4829 3562.91 27.2705 3492.01C20.0242 3420.78 20 3329.81 20 3206.5V612.5C20 489.193 20.0242 398.219 27.2705 326.986C34.4829 256.087 48.684 206.967 75.615 166.662C99.6913 130.629 130.629 99.6913 166.662 75.615C206.967 48.684 256.087 34.4829 326.986 27.2705C398.219 20.0242 489.193 20 612.5 20Z" fill="#CE1131" stroke="#2F2F2F" stroke-width="40"/>
<circle cx="335.181" cy="305.181" r="180.681" fill="white" stroke="#2F2F2F" stroke-width="15"/>
<path d="M461 305C461 374.588 404.588 431 335 431C265.412 431 209 374.588 209 305C209 235.412 265.412 179 335 179C404.588 179 461 235.412 461 305Z" fill="#009DD4"/>
<path d="M415 250.5C415 276.734 393.957 298 368 298C342.043 298 321 276.734 321 250.5C321 224.266 342.043 203 368 203C393.957 203 415 224.266 415 250.5Z" fill="#0BCDFF"/>
<path d="M874.277 305.181C874.277 336.53 848.098 362.498 815.111 362.498C782.125 362.498 755.945 336.53 755.945 305.181C755.945 273.832 782.125 247.865 815.111 247.865C848.098 247.865 874.277 273.832 874.277 305.181Z" fill="#F10606" stroke="#951829" stroke-width="25"/>
<path d="M1087.89 305.181C1087.89 336.53 1061.71 362.498 1028.72 362.498C995.736 362.498 969.557 336.53 969.557 305.181C969.557 273.832 995.736 247.865 1028.72 247.865C1061.71 247.865 1087.89 273.832 1087.89 305.181Z" fill="#FAE20E" stroke="#A9990E" stroke-width="25"/>
<path d="M1301.5 305.181C1301.5 336.53 1275.32 362.498 1242.33 362.498C1209.35 362.498 1183.17 336.53 1183.17 305.181C1183.17 273.832 1209.35 247.865 1242.33 247.865C1275.32 247.865 1301.5 273.832 1301.5 305.181Z" fill="#4BF111" stroke="#27780A" stroke-width="25"/>
<rect x="362" y="2683" width="1575" height="929" rx="52" fill="#032D29"/>
<g filter="url(#filter0_d_106_11)">
<rect x="447" y="2172" width="122" height="345" rx="17" fill="#262626"/>
<rect x="335" y="2405" width="122" height="345" rx="17" transform="rotate(-90 335 2405)" fill="#262626"/>
</g>
<g filter="url(#filter1_d_106_11)">
<rect x="897" y="2172" width="473" height="219" rx="17" fill="#55AB62"/>
<rect x="904.5" y="2179.5" width="458" height="204" rx="9.5" stroke="#2F2F2F" stroke-width="15"/>
</g>
<g filter="url(#filter2_d_106_11)">
<circle cx="1635" cy="2344" r="110" fill="#262626"/>
</g>
<g filter="url(#filter3_d_106_11)">
<circle cx="1925" cy="2344" r="110" fill="#262626"/>
</g>
<rect x="823" y="2450" width="290" height="60" rx="30" fill="#EB7474" stroke="black" stroke-width="10"/>
<rect x="1160" y="2450" width="290" height="60" rx="30" fill="#095378" stroke="black" stroke-width="10"/>
<path d="M321 532.5H1979.15C2003.08 532.5 2019.76 532.527 2032.35 534.219C2044.58 535.863 2051.06 538.871 2055.67 543.483C2060.28 548.096 2063.29 554.572 2064.93 566.802C2066.63 579.391 2066.65 596.076 2066.65 620V1631C2066.65 1654.92 2066.63 1671.61 2064.93 1684.2C2063.29 1696.43 2060.28 1702.9 2055.67 1707.52C2051.06 1712.13 2044.58 1715.14 2032.35 1716.78C2019.76 1718.47 2003.08 1718.5 1979.15 1718.5H631C534.009 1718.5 462.523 1718.47 407.725 1711.11C353.287 1703.79 317.194 1689.43 289.882 1662.12C262.57 1634.81 248.213 1598.71 240.894 1544.28C233.527 1489.48 233.5 1417.99 233.5 1321V620C233.5 596.076 233.527 579.391 235.219 566.802C236.863 554.572 239.871 548.096 244.483 543.483C249.096 538.871 255.572 535.863 267.802 534.219C280.391 532.527 297.076 532.5 321 532.5Z" fill="#F0F5FF" stroke="#2F2F2F" stroke-width="25"/>
<rect x="335.5" y="585.5" width="1663" height="1029" rx="17.5" fill="#FAFAFF" stroke="#2F2F2F" stroke-width="15"/>
<path d="M346 593V1608M531.929 593V1608" stroke="#CCCCCC" stroke-width="10"/>
<path d="M1804.07 593V1608M1990 593V1608" stroke="#CCCCCC" stroke-width="10"/>
<path d="M1439.82 593V1608M1625.75 593V1608" stroke="#CCCCCC" stroke-width="10"/>
<path d="M1074.49 593V1608M1260.42 593V1608" stroke="#CCCCCC" stroke-width="10"/>
<path d="M710.246 593V1608M896.175 593V1608" stroke="#CCCCCC" stroke-width="10"/>
<path d="M346 765.53L1990 765.53M346 593L1990 593" stroke="#CCCCCC" stroke-width="10"/>
<path d="M346 1103.53H1990M346 930.997L1990 930.997" stroke="#CCCCCC" stroke-width="10"/>
<path d="M346 1442.53H1990M346 1270H1990" stroke="#CCCCCC" stroke-width="10"/>
<path d="M346 1608H1990" stroke="#CCCCCC" stroke-width="10"/>
<rect x="386.5" y="687.5" width="287.923" height="121" rx="8.5" fill="#DE3350" stroke="#2F2F2F" stroke-width="13"/>
<path d="M677.678 687H1335C1340.52 687 1345 691.477 1345 697V799C1345 804.523 1340.52 809 1335 809H677.678C672.155 809 667.678 804.523 667.678 799V697C667.678 691.477 672.155 687 677.678 687Z" fill="white" stroke="#2F2F2F" stroke-width="12"/>
<path d="M1441 687H1923C1925.21 687 1927 688.791 1927 691V800C1927 802.209 1925.21 804 1923 804H1441C1438.79 804 1437 802.209 1437 800V691C1437 688.791 1438.79 687 1441 687Z" fill="#DE3350" stroke="#2F2F2F" stroke-width="12"/>
<path d="M1441 797H1923C1925.21 797 1927 798.791 1927 801V899C1927 901.209 1925.21 903 1923 903H1441C1438.79 903 1437 901.209 1437 899V801C1437 798.791 1438.79 797 1441 797Z" fill="white" stroke="#2F2F2F" stroke-width="12"/>
<path d="M1545 760.375V732.25H1550.62V726.625H1556.25V721H1573.12V726.625H1578.75V732.25H1584.38V760.375H1573.12V749.125H1556.25V760.375H1545ZM1556.25 743.5H1573.12V732.25H1567.5V726.625H1561.88V732.25H1556.25V743.5ZM1595.62 760.375V721H1606.88V754.75H1629.38V760.375H1595.62ZM1651.88 760.375V726.625H1640.62V721H1674.38V726.625H1663.12V760.375H1651.88ZM1685.62 760.375V754.75H1680V721H1691.25V754.75H1708.12V721H1719.38V754.75H1713.75V760.375H1685.62ZM1725 760.375V721H1758.75V726.625H1764.38V743.5H1753.12V749.125H1758.75V754.75H1764.38V760.375H1747.5V754.75H1741.88V749.125H1736.25V760.375H1725ZM1736.25 743.5H1747.5V737.875H1753.12V726.625H1736.25V743.5ZM1770 760.375V732.25H1775.62V726.625H1781.25V721H1798.12V726.625H1803.75V732.25H1809.38V760.375H1798.12V749.125H1781.25V760.375H1770ZM1781.25 743.5H1798.12V732.25H1792.5V726.625H1786.88V732.25H1781.25V743.5Z" fill="#FAFAFF"/>
<path d="M1441 1237H1923C1925.21 1237 1927 1238.79 1927 1241V1349C1927 1351.21 1925.21 1353 1923 1353H1441C1438.79 1353 1437 1351.21 1437 1349V1241C1437 1238.79 1438.79 1237 1441 1237Z" fill="#DE3350" stroke="#2F2F2F" stroke-width="12"/>
<path d="M1441 1346H1923C1925.21 1346 1927 1347.79 1927 1350V1576C1927 1578.21 1925.21 1580 1923 1580H1441C1438.79 1580 1437 1578.21 1437 1576V1350C1437 1347.79 1438.79 1346 1441 1346Z" fill="white" stroke="#2F2F2F" stroke-width="12"/>
<path d="M1601.88 1310.38V1276.62H1590.62V1271H1624.38V1276.62H1613.12V1310.38H1601.88ZM1635.62 1310.38V1304.75H1646.88V1276.62H1635.62V1271H1669.38V1276.62H1658.12V1304.75H1669.38V1310.38H1635.62ZM1675 1310.38V1271H1708.75V1276.62H1714.38V1293.5H1708.75V1299.12H1686.25V1310.38H1675ZM1686.25 1293.5H1703.12V1276.62H1686.25V1293.5ZM1725.62 1310.38V1304.75H1720V1276.62H1725.62V1271H1753.75V1276.62H1759.38V1304.75H1753.75V1310.38H1725.62ZM1731.25 1304.75H1748.12V1276.62H1731.25V1304.75Z" fill="#FAFAFF"/>
<path d="M1441 962H1923C1925.21 962 1927 963.791 1927 966V1075C1927 1077.21 1925.21 1079 1923 1079H1441C1438.79 1079 1437 1077.21 1437 1075V966C1437 963.791 1438.79 962 1441 962Z" fill="#DE3350" stroke="#2F2F2F" stroke-width="12"/>
<path d="M1441 1072H1923C1925.21 1072 1927 1073.79 1927 1076V1174C1927 1176.21 1925.21 1178 1923 1178H1441C1438.79 1178 1437 1176.21 1437 1174V1076C1437 1073.79 1438.79 1072 1441 1072Z" fill="white" stroke="#2F2F2F" stroke-width="12"/>
<path d="M1585 1037.38V998H1618.75V1003.62H1624.38V1020.5H1618.75V1026.12H1596.25V1037.38H1585ZM1596.25 1020.5H1613.12V1003.62H1596.25V1020.5ZM1630 1037.38V998H1669.38V1003.62H1641.25V1014.88H1663.75V1020.5H1641.25V1031.75H1669.38V1037.38H1630ZM1680.62 1037.38V1031.75H1675V1026.12H1686.25V1031.75H1703.12V1020.5H1680.62V1014.88H1675V1003.62H1680.62V998H1708.75V1003.62H1714.38V1009.25H1703.12V1003.62H1686.25V1014.88H1708.75V1020.5H1714.38V1031.75H1708.75V1037.38H1680.62ZM1725.62 1037.38V1031.75H1720V1003.62H1725.62V998H1753.75V1003.62H1759.38V1031.75H1753.75V1037.38H1725.62ZM1731.25 1031.75H1748.12V1003.62H1731.25V1031.75Z" fill="white"/>
<rect x="373" y="1802" width="1588" height="281" rx="81" fill="#42C0E0" stroke="#2F2F2F" stroke-width="16"/>
<path d="M1167 1802.09V2079.97" stroke="#2F2F2F" stroke-width="16"/>
<path d="M1701.07 1802.09V2079.97" stroke="#2F2F2F" stroke-width="16"/>
<path d="M1434.04 1802.09V2079.97" stroke="#2F2F2F" stroke-width="16"/>
<path d="M632.93 1802.09V2079.97" stroke="#2F2F2F" stroke-width="16"/>
<path d="M899.965 1802.09V2079.97" stroke="#2F2F2F" stroke-width="16"/>
<path d="M375.717 1942.5L1955.6 1943.23" stroke="#2F2F2F" stroke-width="16"/>
<path d="M694 1891V1861H700V1855H706V1849H724V1855H730V1861H736V1891H724V1879H706V1891H694ZM706 1873H724V1861H718V1855H712V1861H706V1873ZM760 1891V1855H748V1849H784V1855H772V1891H760ZM790 1891V1849H802V1867H808V1861H814V1855H820V1849H832V1855H826V1861H820V1867H814V1873H820V1879H826V1885H832V1891H814V1885H808V1879H802V1891H790Z" fill="#095378"/>
<path d="M962 1891V1849H992V1855H998V1861H1004V1879H998V1885H992V1891H962ZM974 1885H986V1879H992V1861H986V1855H974V1885ZM1010 1891V1849H1052V1855H1022V1867H1046V1873H1022V1885H1052V1891H1010ZM1058 1891V1849H1100V1855H1070V1867H1094V1873H1070V1891H1058Z" fill="#095378"/>
<path d="M1506 1915V1873H1536V1879H1542V1885H1548V1903H1542V1909H1536V1915H1506ZM1518 1909H1530V1903H1536V1885H1530V1879H1518V1909ZM1554 1915V1873H1596V1879H1566V1891H1590V1897H1566V1909H1596V1915H1554ZM1602 1915V1873H1644V1879H1614V1891H1638V1897H1614V1915H1602Z" fill="#095378"/>
<path d="M1263 1861V1855H1257V1849H1269V1855H1287V1843H1263V1837H1257V1825H1263V1819H1293V1825H1299V1831H1287V1825H1269V1837H1293V1843H1299V1855H1293V1861H1263ZM1306.68 1861V1819H1342.68V1825H1348.68V1843H1342.68V1849H1318.68V1861H1306.68ZM1318.68 1843H1336.68V1825H1318.68V1843Z" fill="#095378"/>
<path d="M1535 1861V1855H1529V1849H1541V1855H1559V1843H1535V1837H1529V1825H1535V1819H1565V1825H1571V1831H1559V1825H1541V1837H1565V1843H1571V1855H1565V1861H1535ZM1578.68 1861V1819H1614.68V1825H1620.68V1843H1614.68V1849H1590.68V1861H1578.68ZM1590.68 1843H1608.68V1825H1590.68V1843Z" fill="#095378"/>
<path d="M1234 1921V1891H1240V1885H1246V1879H1264V1885H1270V1891H1276V1921H1264V1909H1246V1921H1234ZM1246 1903H1264V1891H1258V1885H1252V1891H1246V1903ZM1300 1921V1885H1288V1879H1324V1885H1312V1921H1300ZM1330 1921V1879H1342V1897H1348V1891H1354V1885H1360V1879H1372V1885H1366V1891H1360V1897H1354V1903H1360V1909H1366V1915H1372V1921H1354V1915H1348V1909H1342V1921H1330Z" fill="#095378"/>
<path d="M1713.62 1883.38V1877.75H1708V1872.12H1719.25V1877.75H1736.12V1866.5H1713.62V1860.88H1708V1849.62H1713.62V1844H1741.75V1849.62H1747.38V1855.25H1736.12V1849.62H1719.25V1860.88H1741.75V1866.5H1747.38V1877.75H1741.75V1883.38H1713.62ZM1753 1883.38V1844H1786.75V1849.62H1792.38V1866.5H1786.75V1872.12H1764.25V1883.38H1753ZM1764.25 1866.5H1781.12V1849.62H1764.25V1866.5ZM1798 1883.38V1844H1837.38V1849.62H1809.25V1860.88H1831.75V1866.5H1809.25V1877.75H1837.38V1883.38H1798ZM1843 1883.38V1844H1882.38V1849.62H1854.25V1860.88H1876.75V1866.5H1854.25V1877.75H1882.38V1883.38H1843ZM1888 1883.38V1844H1916.12V1849.62H1921.75V1855.25H1927.38V1872.12H1921.75V1877.75H1916.12V1883.38H1888ZM1899.25 1877.75H1910.5V1872.12H1916.12V1855.25H1910.5V1849.62H1899.25V1877.75Z" fill="#095378"/>
<path d="M467 1891V1849H503V1855H509V1873H503V1879H479V1891H467ZM479 1873H497V1855H479V1873ZM521 1891V1885H515V1879H527V1885H545V1873H521V1867H515V1855H521V1849H551V1855H557V1861H545V1855H527V1867H551V1873H557V1885H551V1891H521Z" fill="#095378"/>
<defs>
<filter id="filter0_d_106_11" x="335" y="2172" width="355" height="367" filterUnits="userSpaceOnUse" color-interpolation-filters="sRGB">
<feFlood flood-opacity="0" result="BackgroundImageFix"/>
<feColorMatrix in="SourceAlpha" type="matrix" values="0 0 0 0 0 0 0 0 0 0 0 0 0 0 0 0 0 0 127 0" result="hardAlpha"/>
<feOffset dx="6" dy="18"/>
<feGaussianBlur stdDeviation="2"/>
<feComposite in2="hardAlpha" operator="out"/>
<feColorMatrix type="matrix" values="0 0 0 0 0 0 0 0 0 0 0 0 0 0 0 0 0 0 0.5 0"/>
<feBlend mode="normal" in2="BackgroundImageFix" result="effect1_dropShadow_106_11"/>
<feBlend mode="normal" in="SourceGraphic" in2="effect1_dropShadow_106_11" result="shape"/>
</filter>
<filter id="filter1_d_106_11" x="893" y="2172" width="481" height="229" filterUnits="userSpaceOnUse" color-interpolation-filters="sRGB">
<feFlood flood-opacity="0" result="BackgroundImageFix"/>
<feColorMatrix in="SourceAlpha" type="matrix" values="0 0 0 0 0 0 0 0 0 0 0 0 0 0 0 0 0 0 127 0" result="hardAlpha"/>
<feOffset dy="6"/>
<feGaussianBlur stdDeviation="2"/>
<feComposite in2="hardAlpha" operator="out"/>
<feColorMatrix type="matrix" values="0 0 0 0 0 0 0 0 0 0 0 0 0 0 0 0 0 0 0.25 0"/>
<feBlend mode="normal" in2="BackgroundImageFix" result="effect1_dropShadow_106_11"/>
<feBlend mode="normal" in="SourceGraphic" in2="effect1_dropShadow_106_11" result="shape"/>
</filter>
<filter id="filter2_d_106_11" x="1508" y="2221" width="254" height="254" filterUnits="userSpaceOnUse" color-interpolation-filters="sRGB">
<feFlood flood-opacity="0" result="BackgroundImageFix"/>
<feColorMatrix in="SourceAlpha" type="matrix" values="0 0 0 0 0 0 0 0 0 0 0 0 0 0 0 0 0 0 127 0" result="hardAlpha"/>
<feMorphology radius="13" operator="dilate" in="SourceAlpha" result="effect1_dropShadow_106_11"/>
<feOffset dy="4"/>
<feGaussianBlur stdDeviation="2"/>
<feComposite in2="hardAlpha" operator="out"/>
<feColorMatrix type="matrix" values="0 0 0 0 0 0 0 0 0 0 0 0 0 0 0 0 0 0 0.25 0"/>
<feBlend mode="normal" in2="BackgroundImageFix" result="effect1_dropShadow_106_11"/>
<feBlend mode="normal" in="SourceGraphic" in2="effect1_dropShadow_106_11" result="shape"/>
</filter>
<filter id="filter3_d_106_11" x="1802" y="2225" width="246" height="246" filterUnits="userSpaceOnUse" color-interpolation-filters="sRGB">
<feFlood flood-opacity="0" result="BackgroundImageFix"/>
<feColorMatrix in="SourceAlpha" type="matrix" values="0 0 0 0 0 0 0 0 0 0 0 0 0 0 0 0 0 0 127 0" result="hardAlpha"/>
<feMorphology radius="9" operator="dilate" in="SourceAlpha" result="effect1_dropShadow_106_11"/>
<feOffset dy="4"/>
<feGaussianBlur stdDeviation="2"/>
<feComposite in2="hardAlpha" operator="out"/>
<feColorMatrix type="matrix" values="0 0 0 0 0 0 0 0 0 0 0 0 0 0 0 0 0 0 0.25 0"/>
<feBlend mode="normal" in2="BackgroundImageFix" result="effect1_dropShadow_106_11"/>
<feBlend mode="normal" in="SourceGraphic" in2="effect1_dropShadow_106_11" result="shape"/>
</filter>
</defs>
</svg>
