<svg width="2300" height="3819" viewBox="0 0 2300 3819" fill="none" xmlns="http://www.w3.org/2000/svg">
<mask id="path-1-inside-1_93_4" fill="white">
<path d="M0 612.5C0 366.719 0 243.829 58.9856 155.55C84.5211 117.334 117.334 84.5211 155.55 58.9856C243.829 0 366.719 0 612.5 0H2212.5C2247.61 0 2265.17 0 2277.78 8.42652C2283.24 12.0744 2287.93 16.762 2291.57 22.2215C2300 34.8327 2300 52.3884 2300 87.5V3731.5C2300 3766.61 2300 3784.17 2291.57 3796.78C2287.93 3802.24 2283.24 3806.93 2277.78 3810.57C2265.17 3819 2247.61 3819 2212.5 3819H612.5C366.719 3819 243.829 3819 155.55 3760.01C117.334 3734.48 84.5211 3701.67 58.9856 3663.45C0 3575.17 0 3452.28 0 3206.5V612.5Z"/>
</mask>
<path d="M0 612.5C0 366.719 0 243.829 58.9856 155.55C84.5211 117.334 117.334 84.5211 155.55 58.9856C243.829 0 366.719 0 612.5 0H2212.5C2247.61 0 2265.17 0 2277.78 8.42652C2283.24 12.0744 2287.93 16.762 2291.57 22.2215C2300 34.8327 2300 52.3884 2300 87.5V3731.5C2300 3766.61 2300 3784.17 2291.57 3796.78C2287.93 3802.24 2283.24 3806.93 2277.78 3810.57C2265.17 3819 2247.61 3819 2212.5 3819H612.5C366.719 3819 243.829 3819 155.55 3760.01C117.334 3734.48 84.5211 3701.67 58.9856 3663.45C0 3575.17 0 3452.28 0 3206.5V612.5Z" fill="#CE1131" stroke="#951829" stroke-width="108" mask="url(#path-1-inside-1_93_4)"/>
<path d="M321 559.5H1979.15C2002.74 559.5 2020.38 559.501 2033.95 561.326C2047.51 563.149 2056.94 566.784 2064.16 573.998C2071.37 581.212 2075 590.643 2076.83 604.203C2078.65 617.778 2078.65 635.416 2078.65 659V1670C2078.65 1693.58 2078.65 1711.22 2076.83 1724.8C2075 1738.36 2071.37 1747.79 2064.16 1755C2056.94 1762.22 2047.51 1765.85 2033.95 1767.67C2020.38 1769.5 2002.74 1769.5 1979.15 1769.5H631C534.348 1769.5 461.909 1769.5 406.126 1762C350.357 1754.5 311.31 1739.52 281.397 1709.6C251.483 1679.69 236.499 1640.64 229.001 1584.87C221.501 1529.09 221.5 1456.65 221.5 1360V659C221.5 635.416 221.501 617.778 223.326 604.203C225.149 590.643 228.784 581.212 235.998 573.998C243.212 566.784 252.643 563.149 266.203 561.326C279.778 559.501 297.416 559.5 321 559.5Z" fill="#DEDEDE" stroke="#D6D1BE"/>
<rect x="323.654" y="634.12" width="1653" height="1022.55" rx="57.5" fill="#F1F2D3" stroke="#D6D1BE" stroke-width="25"/>
<circle cx="337.181" cy="336.181" r="188.181" fill="white"/>
<path d="M485.599 335.719C485.599 417.432 419.357 483.674 337.643 483.674C255.929 483.674 189.688 417.432 189.688 335.719C189.688 254.005 255.929 187.763 337.643 187.763C419.357 187.763 485.599 254.005 485.599 335.719Z" fill="#009DD4"/>
<path d="M431.965 271.913C431.965 302.555 407.124 327.396 376.481 327.396C345.839 327.396 320.998 302.555 320.998 271.913C320.998 241.27 345.839 216.429 376.481 216.429C407.124 216.429 431.965 241.27 431.965 271.913Z" fill="#0BCDFF"/>
<path d="M876.277 336.181C876.277 367.53 850.098 393.498 817.111 393.498C784.125 393.498 757.945 367.53 757.945 336.181C757.945 304.832 784.125 278.865 817.111 278.865C850.098 278.865 876.277 304.832 876.277 336.181Z" fill="#F10606" stroke="#951829" stroke-width="25"/>
<path d="M1089.89 336.181C1089.89 367.53 1063.71 393.498 1030.72 393.498C997.736 393.498 971.557 367.53 971.557 336.181C971.557 304.832 997.736 278.865 1030.72 278.865C1063.71 278.865 1089.89 304.832 1089.89 336.181Z" fill="#FAE20E" stroke="#A9990E" stroke-width="25"/>
<path d="M1303.5 336.181C1303.5 367.53 1277.32 393.498 1244.33 393.498C1211.35 393.498 1185.17 367.53 1185.17 336.181C1185.17 304.832 1211.35 278.865 1244.33 278.865C1277.32 278.865 1303.5 304.832 1303.5 336.181Z" fill="#4BF111" stroke="#27780A" stroke-width="25"/>
<rect x="493" y="2732" width="1313" height="863" rx="52" fill="#032D29"/>
<path d="M601.39 2963V2910.71H587.44V2900H626.41V2910.71H612.37V2963H601.39ZM632.876 2963V2913.23H643.316V2963H632.876ZM638.006 2908.91C636.446 2908.91 635.066 2908.37 633.866 2907.29C632.726 2906.15 632.156 2904.8 632.156 2903.24C632.156 2901.68 632.726 2900.36 633.866 2899.28C635.066 2898.14 636.446 2897.57 638.006 2897.57C639.566 2897.57 640.886 2898.14 641.966 2899.28C643.106 2900.36 643.676 2901.68 643.676 2903.24C643.676 2904.8 643.106 2906.15 641.966 2907.29C640.886 2908.37 639.566 2908.91 638.006 2908.91ZM667.131 2963V2952.83H671.451C672.771 2952.83 673.791 2952.59 674.511 2952.11C675.291 2951.63 675.801 2951.09 676.041 2950.49C676.341 2949.89 676.491 2949.44 676.491 2949.14V2926.55C676.491 2926.25 676.341 2925.8 676.041 2925.2C675.741 2924.6 675.201 2924.06 674.421 2923.58C673.701 2923.04 672.651 2922.77 671.271 2922.77H666.951V2912.6H671.271C673.911 2912.6 676.191 2913.11 678.111 2914.13C680.091 2915.09 681.711 2916.32 682.971 2917.82C684.291 2919.26 685.251 2920.76 685.851 2922.32C686.511 2923.88 686.841 2925.23 686.841 2926.37V2949.32C686.841 2950.4 686.511 2951.72 685.851 2953.28C685.251 2954.84 684.321 2956.37 683.061 2957.87C681.801 2959.31 680.211 2960.54 678.291 2961.56C676.371 2962.52 674.091 2963 671.451 2963H667.131ZM651.651 2980.64V2912.6H662.541V2980.64H651.651ZM710.028 2963.09C707.808 2963.09 705.708 2962.7 703.728 2961.92C701.808 2961.08 700.128 2959.97 698.688 2958.59C697.248 2957.15 696.108 2955.47 695.268 2953.55C694.488 2951.57 694.098 2949.47 694.098 2947.25V2928.98C694.098 2926.7 694.458 2924.57 695.178 2922.59C695.958 2920.61 697.038 2918.87 698.418 2917.37C699.858 2915.87 701.538 2914.7 703.458 2913.86C705.438 2913.02 707.628 2912.6 710.028 2912.6V2922.77C708.828 2922.77 707.808 2923.07 706.968 2923.67C706.188 2924.27 705.558 2925.08 705.078 2926.1C704.658 2927.12 704.448 2928.29 704.448 2929.61V2946.62C704.448 2947.7 704.658 2948.75 705.078 2949.77C705.558 2950.73 706.218 2951.51 707.058 2952.11C707.958 2952.65 708.948 2952.92 710.028 2952.92V2963.09ZM714.348 2963.09V2952.92C715.488 2952.92 716.478 2952.65 717.318 2952.11C718.158 2951.51 718.788 2950.73 719.208 2949.77C719.688 2948.81 719.928 2947.79 719.928 2946.71V2929.61C719.928 2928.35 719.718 2927.21 719.298 2926.19C718.878 2925.11 718.248 2924.27 717.408 2923.67C716.568 2923.07 715.548 2922.77 714.348 2922.77V2912.6C716.748 2912.6 718.908 2913.02 720.828 2913.86C722.808 2914.7 724.488 2915.87 725.868 2917.37C727.308 2918.87 728.388 2920.61 729.108 2922.59C729.828 2924.57 730.188 2926.7 730.188 2928.98V2947.25C730.188 2949.47 729.768 2951.57 728.928 2953.55C728.148 2955.47 727.038 2957.15 725.598 2958.59C724.158 2959.97 722.478 2961.08 720.558 2961.92C718.638 2962.7 716.568 2963.09 714.348 2963.09ZM743.305 2932.22C741.685 2932.22 740.275 2931.65 739.075 2930.51C737.935 2929.37 737.365 2927.99 737.365 2926.37C737.365 2924.63 737.935 2923.19 739.075 2922.05C740.275 2920.91 741.685 2920.34 743.305 2920.34C744.985 2920.34 746.395 2920.91 747.535 2922.05C748.675 2923.19 749.245 2924.63 749.245 2926.37C749.245 2927.99 748.675 2929.37 747.535 2930.51C746.395 2931.65 744.985 2932.22 743.305 2932.22ZM743.305 2958.32C741.685 2958.32 740.275 2957.75 739.075 2956.61C737.935 2955.47 737.365 2954.09 737.365 2952.47C737.365 2950.73 737.935 2949.29 739.075 2948.15C740.275 2947.01 741.685 2946.44 743.305 2946.44C744.925 2946.44 746.305 2947.01 747.445 2948.15C748.585 2949.29 749.155 2950.73 749.155 2952.47C749.155 2954.09 748.585 2955.47 747.445 2956.61C746.305 2957.75 744.925 2958.32 743.305 2958.32Z" fill="#F9D910"/>
<path d="M600.78 3248V3185H611.76V3248H600.78ZM616.44 3219.47V3208.76H621.39C622.35 3208.76 623.31 3208.64 624.27 3208.4C625.23 3208.1 626.01 3207.47 626.61 3206.51C627.27 3205.55 627.6 3204.11 627.6 3202.19C627.6 3200.33 627.27 3198.95 626.61 3198.05C626.01 3197.09 625.23 3196.46 624.27 3196.16C623.37 3195.86 622.41 3195.71 621.39 3195.71H616.44V3185H622.11C626.19 3185 629.43 3185.72 631.83 3187.16C634.29 3188.54 636.06 3190.55 637.14 3193.19C638.22 3195.77 638.76 3198.89 638.76 3202.55C638.76 3206.45 638.16 3209.66 636.96 3212.18C635.82 3214.64 634.02 3216.47 631.56 3217.67C629.16 3218.87 626.01 3219.47 622.11 3219.47H616.44ZM663.552 3248.27V3238.1C664.332 3238.1 665.142 3237.89 665.982 3237.47C666.822 3237.05 667.602 3236.48 668.322 3235.76C669.102 3235.04 669.732 3234.23 670.212 3233.33C670.692 3232.37 670.932 3231.32 670.932 3230.18C670.932 3228.44 670.452 3226.97 669.492 3225.77C668.532 3224.51 667.272 3223.46 665.712 3222.62C664.212 3221.72 662.652 3221 661.032 3220.46C659.472 3219.92 658.032 3219.47 656.712 3219.11C655.392 3218.75 654.492 3218.48 654.012 3218.3C652.152 3217.7 650.382 3216.71 648.702 3215.33C647.022 3213.95 645.642 3212.18 644.562 3210.02C643.482 3207.8 642.942 3205.22 642.942 3202.28C642.942 3199.1 643.512 3196.43 644.652 3194.27C645.852 3192.05 647.322 3190.28 649.062 3188.96C650.802 3187.64 652.572 3186.65 654.372 3185.99C656.172 3185.33 657.642 3185 658.782 3185V3195.26C658.242 3195.44 657.642 3195.71 656.982 3196.07C656.382 3196.37 655.812 3196.82 655.272 3197.42C654.732 3198.02 654.282 3198.71 653.922 3199.49C653.562 3200.21 653.382 3201.08 653.382 3202.1C653.382 3203.36 653.712 3204.44 654.372 3205.34C655.092 3206.24 656.022 3207.02 657.162 3207.68C658.362 3208.28 659.682 3208.88 661.122 3209.48C662.622 3210.02 664.152 3210.56 665.712 3211.1C667.332 3211.64 668.892 3212.3 670.392 3213.08C672.312 3213.98 674.142 3215.15 675.882 3216.59C677.622 3217.97 679.062 3219.68 680.202 3221.72C681.342 3223.76 681.912 3226.25 681.912 3229.19C681.912 3232.55 681.072 3235.7 679.392 3238.64C677.712 3241.52 675.462 3243.86 672.642 3245.66C669.882 3247.4 666.852 3248.27 663.552 3248.27ZM658.782 3248.27C656.262 3248.27 653.982 3247.76 651.942 3246.74C649.962 3245.72 648.222 3244.43 646.722 3242.87C645.282 3241.31 644.172 3239.72 643.392 3238.1C642.612 3236.48 642.222 3235.04 642.222 3233.78L652.122 3230.27C652.242 3231.77 652.662 3233.09 653.382 3234.23C654.102 3235.31 654.942 3236.18 655.902 3236.84C656.922 3237.44 657.882 3237.86 658.782 3238.1V3248.27ZM669.222 3201.56C669.102 3200.24 668.712 3199.16 668.052 3198.32C667.452 3197.42 666.732 3196.73 665.892 3196.25C665.112 3195.71 664.332 3195.38 663.552 3195.26V3185C665.952 3185 668.112 3185.48 670.032 3186.44C671.952 3187.34 673.602 3188.54 674.982 3190.04C676.362 3191.48 677.412 3192.95 678.132 3194.45C678.912 3195.89 679.332 3197.15 679.392 3198.23L669.222 3201.56ZM630.03 3361L628.14 3352.54H617.34L619.68 3341.74H625.17L615.45 3298H626.34L640.92 3361H630.03ZM599.88 3361L611.58 3308.35H613.02L617.52 3329.5L610.59 3361H599.88ZM658.181 3361V3308.71H644.231V3298H683.201V3308.71H669.161V3361H658.181ZM716.217 3361L702.987 3330.31L715.857 3298H726.837L714.057 3330.31L727.197 3361H716.217ZM688.407 3361V3298H699.297V3361H688.407ZM616.44 3474V3463.11C617.16 3463.11 618 3463.05 618.96 3462.93C619.92 3462.75 620.85 3462.45 621.75 3462.03C622.71 3461.55 623.49 3460.86 624.09 3459.96C624.75 3459.06 625.08 3457.83 625.08 3456.27V3428.73C625.08 3427.95 624.9 3427.17 624.54 3426.39C624.18 3425.55 623.64 3424.8 622.92 3424.14C622.2 3423.48 621.3 3422.94 620.22 3422.52C619.14 3422.1 617.88 3421.89 616.44 3421.89V3411C619.68 3411 622.53 3411.54 624.99 3412.62C627.45 3413.7 629.49 3415.11 631.11 3416.85C632.73 3418.59 633.96 3420.51 634.8 3422.61C635.64 3424.65 636.06 3426.69 636.06 3428.73V3456.27C636.06 3459.81 635.37 3462.75 633.99 3465.09C632.61 3467.37 630.9 3469.17 628.86 3470.49C626.82 3471.75 624.69 3472.65 622.47 3473.19C620.25 3473.73 618.24 3474 616.44 3474ZM600.78 3474V3411H611.67V3474H600.78ZM643.231 3474V3411H675.991V3421.89H654.121V3437.19H667.531V3448.17H654.121V3463.11H675.991V3474H643.231ZM683.221 3473.91V3411H715.981V3421.89H694.111V3437.19H707.521V3448.17H694.111V3473.91H683.221Z" fill="#FAE20E"/>
<path d="M1173.31 3248.27V3238.1C1174.09 3238.1 1174.9 3237.89 1175.74 3237.47C1176.58 3237.05 1177.36 3236.48 1178.08 3235.76C1178.86 3235.04 1179.49 3234.23 1179.97 3233.33C1180.45 3232.37 1180.69 3231.32 1180.69 3230.18C1180.69 3228.44 1180.21 3226.97 1179.25 3225.77C1178.29 3224.51 1177.03 3223.46 1175.47 3222.62C1173.97 3221.72 1172.41 3221 1170.79 3220.46C1169.23 3219.92 1167.79 3219.47 1166.47 3219.11C1165.15 3218.75 1164.25 3218.48 1163.77 3218.3C1161.91 3217.7 1160.14 3216.71 1158.46 3215.33C1156.78 3213.95 1155.4 3212.18 1154.32 3210.02C1153.24 3207.8 1152.7 3205.22 1152.7 3202.28C1152.7 3199.1 1153.27 3196.43 1154.41 3194.27C1155.61 3192.05 1157.08 3190.28 1158.82 3188.96C1160.56 3187.64 1162.33 3186.65 1164.13 3185.99C1165.93 3185.33 1167.4 3185 1168.54 3185V3195.26C1168 3195.44 1167.4 3195.71 1166.74 3196.07C1166.14 3196.37 1165.57 3196.82 1165.03 3197.42C1164.49 3198.02 1164.04 3198.71 1163.68 3199.49C1163.32 3200.21 1163.14 3201.08 1163.14 3202.1C1163.14 3203.36 1163.47 3204.44 1164.13 3205.34C1164.85 3206.24 1165.78 3207.02 1166.92 3207.68C1168.12 3208.28 1169.44 3208.88 1170.88 3209.48C1172.38 3210.02 1173.91 3210.56 1175.47 3211.1C1177.09 3211.64 1178.65 3212.3 1180.15 3213.08C1182.07 3213.98 1183.9 3215.15 1185.64 3216.59C1187.38 3217.97 1188.82 3219.68 1189.96 3221.72C1191.1 3223.76 1191.67 3226.25 1191.67 3229.19C1191.67 3232.55 1190.83 3235.7 1189.15 3238.64C1187.47 3241.52 1185.22 3243.86 1182.4 3245.66C1179.64 3247.4 1176.61 3248.27 1173.31 3248.27ZM1168.54 3248.27C1166.02 3248.27 1163.74 3247.76 1161.7 3246.74C1159.72 3245.72 1157.98 3244.43 1156.48 3242.87C1155.04 3241.31 1153.93 3239.72 1153.15 3238.1C1152.37 3236.48 1151.98 3235.04 1151.98 3233.78L1161.88 3230.27C1162 3231.77 1162.42 3233.09 1163.14 3234.23C1163.86 3235.31 1164.7 3236.18 1165.66 3236.84C1166.68 3237.44 1167.64 3237.86 1168.54 3238.1V3248.27ZM1178.98 3201.56C1178.86 3200.24 1178.47 3199.16 1177.81 3198.32C1177.21 3197.42 1176.49 3196.73 1175.65 3196.25C1174.87 3195.71 1174.09 3195.38 1173.31 3195.26V3185C1175.71 3185 1177.87 3185.48 1179.79 3186.44C1181.71 3187.34 1183.36 3188.54 1184.74 3190.04C1186.12 3191.48 1187.17 3192.95 1187.89 3194.45C1188.67 3195.89 1189.09 3197.15 1189.15 3198.23L1178.98 3201.56ZM1197.46 3248V3185H1208.44V3248H1197.46ZM1213.12 3219.47V3208.76H1218.07C1219.03 3208.76 1219.99 3208.64 1220.95 3208.4C1221.91 3208.1 1222.69 3207.47 1223.29 3206.51C1223.95 3205.55 1224.28 3204.11 1224.28 3202.19C1224.28 3200.33 1223.95 3198.95 1223.29 3198.05C1222.69 3197.09 1221.91 3196.46 1220.95 3196.16C1220.05 3195.86 1219.09 3195.71 1218.07 3195.71H1213.12V3185H1218.79C1222.87 3185 1226.11 3185.72 1228.51 3187.16C1230.97 3188.54 1232.74 3190.55 1233.82 3193.19C1234.9 3195.77 1235.44 3198.89 1235.44 3202.55C1235.44 3206.45 1234.84 3209.66 1233.64 3212.18C1232.5 3214.64 1230.7 3216.47 1228.24 3217.67C1225.84 3218.87 1222.69 3219.47 1218.79 3219.47H1213.12ZM1245.92 3248.45C1244.24 3248.45 1242.8 3247.85 1241.6 3246.65C1240.4 3245.45 1239.8 3244.01 1239.8 3242.33C1239.8 3240.59 1240.4 3239.12 1241.6 3237.92C1242.8 3236.72 1244.24 3236.12 1245.92 3236.12C1247.66 3236.12 1249.1 3236.72 1250.24 3237.92C1251.44 3239.12 1252.04 3240.59 1252.04 3242.33C1252.04 3244.01 1251.44 3245.45 1250.24 3246.65C1249.1 3247.85 1247.66 3248.45 1245.92 3248.45ZM1287.97 3248L1286.08 3239.54H1275.28L1277.62 3228.74H1283.11L1273.39 3185H1284.28L1298.86 3248H1287.97ZM1257.82 3248L1269.52 3195.35H1270.96L1275.46 3216.5L1268.53 3248H1257.82ZM1316.12 3248V3195.71H1302.17V3185H1341.14V3195.71H1327.1V3248H1316.12ZM1374.16 3248L1360.93 3217.31L1373.8 3185H1384.78L1372 3217.31L1385.14 3248H1374.16ZM1346.35 3248V3185H1357.24V3248H1346.35ZM1173.31 3361.27V3351.1C1174.09 3351.1 1174.9 3350.89 1175.74 3350.47C1176.58 3350.05 1177.36 3349.48 1178.08 3348.76C1178.86 3348.04 1179.49 3347.23 1179.97 3346.33C1180.45 3345.37 1180.69 3344.32 1180.69 3343.18C1180.69 3341.44 1180.21 3339.97 1179.25 3338.77C1178.29 3337.51 1177.03 3336.46 1175.47 3335.62C1173.97 3334.72 1172.41 3334 1170.79 3333.46C1169.23 3332.92 1167.79 3332.47 1166.47 3332.11C1165.15 3331.75 1164.25 3331.48 1163.77 3331.3C1161.91 3330.7 1160.14 3329.71 1158.46 3328.33C1156.78 3326.95 1155.4 3325.18 1154.32 3323.02C1153.24 3320.8 1152.7 3318.22 1152.7 3315.28C1152.7 3312.1 1153.27 3309.43 1154.41 3307.27C1155.61 3305.05 1157.08 3303.28 1158.82 3301.96C1160.56 3300.64 1162.33 3299.65 1164.13 3298.99C1165.93 3298.33 1167.4 3298 1168.54 3298V3308.26C1168 3308.44 1167.4 3308.71 1166.74 3309.07C1166.14 3309.37 1165.57 3309.82 1165.03 3310.42C1164.49 3311.02 1164.04 3311.71 1163.68 3312.49C1163.32 3313.21 1163.14 3314.08 1163.14 3315.1C1163.14 3316.36 1163.47 3317.44 1164.13 3318.34C1164.85 3319.24 1165.78 3320.02 1166.92 3320.68C1168.12 3321.28 1169.44 3321.88 1170.88 3322.48C1172.38 3323.02 1173.91 3323.56 1175.47 3324.1C1177.09 3324.64 1178.65 3325.3 1180.15 3326.08C1182.07 3326.98 1183.9 3328.15 1185.64 3329.59C1187.38 3330.97 1188.82 3332.68 1189.96 3334.72C1191.1 3336.76 1191.67 3339.25 1191.67 3342.19C1191.67 3345.55 1190.83 3348.7 1189.15 3351.64C1187.47 3354.52 1185.22 3356.86 1182.4 3358.66C1179.64 3360.4 1176.61 3361.27 1173.31 3361.27ZM1168.54 3361.27C1166.02 3361.27 1163.74 3360.76 1161.7 3359.74C1159.72 3358.72 1157.98 3357.43 1156.48 3355.87C1155.04 3354.31 1153.93 3352.72 1153.15 3351.1C1152.37 3349.48 1151.98 3348.04 1151.98 3346.78L1161.88 3343.27C1162 3344.77 1162.42 3346.09 1163.14 3347.23C1163.86 3348.31 1164.7 3349.18 1165.66 3349.84C1166.68 3350.44 1167.64 3350.86 1168.54 3351.1V3361.27ZM1178.98 3314.56C1178.86 3313.24 1178.47 3312.16 1177.81 3311.32C1177.21 3310.42 1176.49 3309.73 1175.65 3309.25C1174.87 3308.71 1174.09 3308.38 1173.31 3308.26V3298C1175.71 3298 1177.87 3298.48 1179.79 3299.44C1181.71 3300.34 1183.36 3301.54 1184.74 3303.04C1186.12 3304.48 1187.17 3305.95 1187.89 3307.45C1188.67 3308.89 1189.09 3310.15 1189.15 3311.23L1178.98 3314.56ZM1197.46 3361V3298H1208.44V3361H1197.46ZM1213.12 3332.47V3321.76H1218.07C1219.03 3321.76 1219.99 3321.64 1220.95 3321.4C1221.91 3321.1 1222.69 3320.47 1223.29 3319.51C1223.95 3318.55 1224.28 3317.11 1224.28 3315.19C1224.28 3313.33 1223.95 3311.95 1223.29 3311.05C1222.69 3310.09 1221.91 3309.46 1220.95 3309.16C1220.05 3308.86 1219.09 3308.71 1218.07 3308.71H1213.12V3298H1218.79C1222.87 3298 1226.11 3298.72 1228.51 3300.16C1230.97 3301.54 1232.74 3303.55 1233.82 3306.19C1234.9 3308.77 1235.44 3311.89 1235.44 3315.55C1235.44 3319.45 1234.84 3322.66 1233.64 3325.18C1232.5 3327.64 1230.7 3329.47 1228.24 3330.67C1225.84 3331.87 1222.69 3332.47 1218.79 3332.47H1213.12ZM1245.92 3361.45C1244.24 3361.45 1242.8 3360.85 1241.6 3359.65C1240.4 3358.45 1239.8 3357.01 1239.8 3355.33C1239.8 3353.59 1240.4 3352.12 1241.6 3350.92C1242.8 3349.72 1244.24 3349.12 1245.92 3349.12C1247.66 3349.12 1249.1 3349.72 1250.24 3350.92C1251.44 3352.12 1252.04 3353.59 1252.04 3355.33C1252.04 3357.01 1251.44 3358.45 1250.24 3359.65C1249.1 3360.85 1247.66 3361.45 1245.92 3361.45ZM1274.38 3361V3350.11C1275.1 3350.11 1275.94 3350.05 1276.9 3349.93C1277.86 3349.75 1278.79 3349.45 1279.69 3349.03C1280.65 3348.55 1281.43 3347.86 1282.03 3346.96C1282.69 3346.06 1283.02 3344.83 1283.02 3343.27V3315.73C1283.02 3314.95 1282.84 3314.17 1282.48 3313.39C1282.12 3312.55 1281.58 3311.8 1280.86 3311.14C1280.14 3310.48 1279.24 3309.94 1278.16 3309.52C1277.08 3309.1 1275.82 3308.89 1274.38 3308.89V3298C1277.62 3298 1280.47 3298.54 1282.93 3299.62C1285.39 3300.7 1287.43 3302.11 1289.05 3303.85C1290.67 3305.59 1291.9 3307.51 1292.74 3309.61C1293.58 3311.65 1294 3313.69 1294 3315.73V3343.27C1294 3346.81 1293.31 3349.75 1291.93 3352.09C1290.55 3354.37 1288.84 3356.17 1286.8 3357.49C1284.76 3358.75 1282.63 3359.65 1280.41 3360.19C1278.19 3360.73 1276.18 3361 1274.38 3361ZM1258.72 3361V3298H1269.61V3361H1258.72ZM1301.17 3361V3298H1333.93V3308.89H1312.06V3324.19H1325.47V3335.17H1312.06V3350.11H1333.93V3361H1301.17ZM1341.16 3360.91V3298H1373.92V3308.89H1352.05V3324.19H1365.46V3335.17H1352.05V3360.91H1341.16ZM1173.31 3474.27V3464.1C1174.09 3464.1 1174.9 3463.89 1175.74 3463.47C1176.58 3463.05 1177.36 3462.48 1178.08 3461.76C1178.86 3461.04 1179.49 3460.23 1179.97 3459.33C1180.45 3458.37 1180.69 3457.32 1180.69 3456.18C1180.69 3454.44 1180.21 3452.97 1179.25 3451.77C1178.29 3450.51 1177.03 3449.46 1175.47 3448.62C1173.97 3447.72 1172.41 3447 1170.79 3446.46C1169.23 3445.92 1167.79 3445.47 1166.47 3445.11C1165.15 3444.75 1164.25 3444.48 1163.77 3444.3C1161.91 3443.7 1160.14 3442.71 1158.46 3441.33C1156.78 3439.95 1155.4 3438.18 1154.32 3436.02C1153.24 3433.8 1152.7 3431.22 1152.7 3428.28C1152.7 3425.1 1153.27 3422.43 1154.41 3420.27C1155.61 3418.05 1157.08 3416.28 1158.82 3414.96C1160.56 3413.64 1162.33 3412.65 1164.13 3411.99C1165.93 3411.33 1167.4 3411 1168.54 3411V3421.26C1168 3421.44 1167.4 3421.71 1166.74 3422.07C1166.14 3422.37 1165.57 3422.82 1165.03 3423.42C1164.49 3424.02 1164.04 3424.71 1163.68 3425.49C1163.32 3426.21 1163.14 3427.08 1163.14 3428.1C1163.14 3429.36 1163.47 3430.44 1164.13 3431.34C1164.85 3432.24 1165.78 3433.02 1166.92 3433.68C1168.12 3434.28 1169.44 3434.88 1170.88 3435.48C1172.38 3436.02 1173.91 3436.56 1175.47 3437.1C1177.09 3437.64 1178.65 3438.3 1180.15 3439.08C1182.07 3439.98 1183.9 3441.15 1185.64 3442.59C1187.38 3443.97 1188.82 3445.68 1189.96 3447.72C1191.1 3449.76 1191.67 3452.25 1191.67 3455.19C1191.67 3458.55 1190.83 3461.7 1189.15 3464.64C1187.47 3467.52 1185.22 3469.86 1182.4 3471.66C1179.64 3473.4 1176.61 3474.27 1173.31 3474.27ZM1168.54 3474.27C1166.02 3474.27 1163.74 3473.76 1161.7 3472.74C1159.72 3471.72 1157.98 3470.43 1156.48 3468.87C1155.04 3467.31 1153.93 3465.72 1153.15 3464.1C1152.37 3462.48 1151.98 3461.04 1151.98 3459.78L1161.88 3456.27C1162 3457.77 1162.42 3459.09 1163.14 3460.23C1163.86 3461.31 1164.7 3462.18 1165.66 3462.84C1166.68 3463.44 1167.64 3463.86 1168.54 3464.1V3474.27ZM1178.98 3427.56C1178.86 3426.24 1178.47 3425.16 1177.81 3424.32C1177.21 3423.42 1176.49 3422.73 1175.65 3422.25C1174.87 3421.71 1174.09 3421.38 1173.31 3421.26V3411C1175.71 3411 1177.87 3411.48 1179.79 3412.44C1181.71 3413.34 1183.36 3414.54 1184.74 3416.04C1186.12 3417.48 1187.17 3418.95 1187.89 3420.45C1188.67 3421.89 1189.09 3423.15 1189.15 3424.23L1178.98 3427.56ZM1197.46 3474V3411H1208.44V3474H1197.46ZM1213.12 3445.47V3434.76H1218.07C1219.03 3434.76 1219.99 3434.64 1220.95 3434.4C1221.91 3434.1 1222.69 3433.47 1223.29 3432.51C1223.95 3431.55 1224.28 3430.11 1224.28 3428.19C1224.28 3426.33 1223.95 3424.95 1223.29 3424.05C1222.69 3423.09 1221.91 3422.46 1220.95 3422.16C1220.05 3421.86 1219.09 3421.71 1218.07 3421.71H1213.12V3411H1218.79C1222.87 3411 1226.11 3411.72 1228.51 3413.16C1230.97 3414.54 1232.74 3416.55 1233.82 3419.19C1234.9 3421.77 1235.44 3424.89 1235.44 3428.55C1235.44 3432.45 1234.84 3435.66 1233.64 3438.18C1232.5 3440.64 1230.7 3442.47 1228.24 3443.67C1225.84 3444.87 1222.69 3445.47 1218.79 3445.47H1213.12ZM1240.7 3474V3411H1273.46V3421.89H1251.59V3437.19H1265V3448.17H1251.59V3463.11H1273.46V3474H1240.7ZM1280.69 3474V3411H1313.45V3421.89H1291.58V3437.19H1304.99V3448.17H1291.58V3463.11H1313.45V3474H1280.69ZM1336.34 3474V3463.11C1337.06 3463.11 1337.9 3463.05 1338.86 3462.93C1339.82 3462.75 1340.75 3462.45 1341.65 3462.03C1342.61 3461.55 1343.39 3460.86 1343.99 3459.96C1344.65 3459.06 1344.98 3457.83 1344.98 3456.27V3428.73C1344.98 3427.95 1344.8 3427.17 1344.44 3426.39C1344.08 3425.55 1343.54 3424.8 1342.82 3424.14C1342.1 3423.48 1341.2 3422.94 1340.12 3422.52C1339.04 3422.1 1337.78 3421.89 1336.34 3421.89V3411C1339.58 3411 1342.43 3411.54 1344.89 3412.62C1347.35 3413.7 1349.39 3415.11 1351.01 3416.85C1352.63 3418.59 1353.86 3420.51 1354.7 3422.61C1355.54 3424.65 1355.96 3426.69 1355.96 3428.73V3456.27C1355.96 3459.81 1355.27 3462.75 1353.89 3465.09C1352.51 3467.37 1350.8 3469.17 1348.76 3470.49C1346.72 3471.75 1344.59 3472.65 1342.37 3473.19C1340.15 3473.73 1338.14 3474 1336.34 3474ZM1320.68 3474V3411H1331.57V3474H1320.68Z" fill="#FAE20E"/>
<g filter="url(#filter0_d_93_4)">
<rect x="463" y="1849" width="122" height="345" rx="17" fill="#262626"/>
<rect x="351" y="2082" width="122" height="345" rx="17" transform="rotate(-90 351 2082)" fill="#262626"/>
</g>
<g filter="url(#filter1_d_93_4)">
<mask id="path-16-inside-2_93_4" fill="white">
<rect x="913" y="1849" width="473" height="219" rx="17"/>
</mask>
<rect x="913" y="1849" width="473" height="219" rx="17" fill="#55AB62"/>
<rect x="913" y="1849" width="473" height="219" rx="17" stroke="#316038" stroke-width="38" mask="url(#path-16-inside-2_93_4)"/>
</g>
<circle cx="1651" cy="2021" r="110" fill="#262626"/>
<circle cx="1941" cy="2021" r="110" fill="#262626"/>
<rect x="834" y="2122" width="300" height="70" rx="35" fill="#EB7474"/>
<rect x="1171" y="2122" width="300" height="70" rx="35" fill="#095378"/>
<defs>
<filter id="filter0_d_93_4" x="351" y="1849" width="355" height="367" filterUnits="userSpaceOnUse" color-interpolation-filters="sRGB">
<feFlood flood-opacity="0" result="BackgroundImageFix"/>
<feColorMatrix in="SourceAlpha" type="matrix" values="0 0 0 0 0 0 0 0 0 0 0 0 0 0 0 0 0 0 127 0" result="hardAlpha"/>
<feOffset dx="6" dy="18"/>
<feGaussianBlur stdDeviation="2"/>
<feComposite in2="hardAlpha" operator="out"/>
<feColorMatrix type="matrix" values="0 0 0 0 0 0 0 0 0 0 0 0 0 0 0 0 0 0 0.5 0"/>
<feBlend mode="normal" in2="BackgroundImageFix" result="effect1_dropShadow_93_4"/>
<feBlend mode="normal" in="SourceGraphic" in2="effect1_dropShadow_93_4" result="shape"/>
</filter>
<filter id="filter1_d_93_4" x="909" y="1849" width="481" height="229" filterUnits="userSpaceOnUse" color-interpolation-filters="sRGB">
<feFlood flood-opacity="0" result="BackgroundImageFix"/>
<feColorMatrix in="SourceAlpha" type="matrix" values="0 0 0 0 0 0 0 0 0 0 0 0 0 0 0 0 0 0 127 0" result="hardAlpha"/>
<feOffset dy="6"/>
<feGaussianBlur stdDeviation="2"/>
<feComposite in2="hardAlpha" operator="out"/>
<feColorMatrix type="matrix" values="0 0 0 0 0 0 0 0 0 0 0 0 0 0 0 0 0 0 0.25 0"/>
<feBlend mode="normal" in2="BackgroundImageFix" result="effect1_dropShadow_93_4"/>
<feBlend mode="normal" in="SourceGraphic" in2="effect1_dropShadow_93_4" result="shape"/>
</filter>
</defs>
</svg>
